<svg id="Icon" xmlns="http://www.w3.org/2000/svg" xmlns:xlink="http://www.w3.org/1999/xlink" width="120" height="120" viewBox="0 0 120 120"><defs><style>.cls-1{fill:none;}.cls-2{clip-path:url(#clip-path);}.cls-3,.cls-7{opacity:0;}.cls-4,.cls-7{fill:#fff;}.cls-5{fill:#0090da;}.cls-6{fill:#0061a0;}</style><clipPath id="clip-path"><rect class="cls-1" width="120" height="120"/></clipPath></defs><title>p_hospital-cash</title><g id="_120p_Dimensions" data-name="120p Dimensions"><g class="cls-2"><g class="cls-2"><g class="cls-2"><g class="cls-3"><g class="cls-2"><rect class="cls-4" width="120" height="120"/></g></g></g></g></g></g><path class="cls-5" d="M35,67A25,25,0,1,1,60,42V67Z"/><path class="cls-4" d="M33.54,57.94V54.08a8.51,8.51,0,0,1-7.72-7.39l4.47-1.08a4.64,4.64,0,0,0,5,4.36c2.35,0,3.72-1.12,3.72-2.7,0-1.23-.9-2.16-2.71-2.56L33,44c-3.89-.87-6.31-3.32-6.31-6.78,0-3.82,3-6.64,6.82-7.25V26.1h3.68v4a7.66,7.66,0,0,1,6.46,6.06l-4.44,1.26A3.88,3.88,0,0,0,35.13,34c-2.31,0-3.57,1.33-3.57,2.81,0,1.12.79,2.05,2.49,2.42l3.28.76c4.55,1,6.6,3.71,6.6,7S41.55,53.36,37.22,54v3.9Z"/><path class="cls-6" d="M60,78A25,25,0,1,0,85,53H60Z"/><polygon class="cls-4" points="99 75 88 75 88 64 82 64 82 75 71 75 71 81 82 81 82 92 88 92 88 81 99 81 99 75"/><rect class="cls-7" width="120" height="120"/></svg>