<?xml version="1.0" encoding="UTF-8"?>
<svg viewBox="0 0 38 30" version="1.1" xmlns="http://www.w3.org/2000/svg" xmlns:xlink="http://www.w3.org/1999/xlink">
    <!-- Generator: Sketch 63.1 (92452) - https://sketch.com -->
    <title>“</title>
    <desc>Created with Sketch.</desc>
    <defs>
        <linearGradient x1="0%" y1="20.9735127%" x2="100%" y2="50%" id="linearGradient-1">
            <stop stop-color="#008EDD" offset="0%"></stop>
            <stop stop-color="#A2CF42" offset="100%"></stop>
        </linearGradient>
        <path d="M480,146.720588 C480,150.691176 476.480299,154 471.711671,154 C466.488889,154 462.628571,150.029412 462.628571,143.963235 C462.628571,130.176471 472.279365,124.661765 478.978151,124 L478.978151,130.066176 C474.436601,130.838235 470.349206,135.139706 470.122129,139.882353 C470.349206,139.772059 471.257516,139.330882 472.392904,139.330882 C476.934454,139.330882 480,142.308824 480,146.720588 Z M459.371429,146.720588 C459.371429,150.691176 455.851727,154 451.0831,154 C445.746779,154 442,150.029412 442,143.963235 C442,130.176471 451.537255,124.661765 458.34958,124 L458.34958,130.066176 C453.694491,130.838235 449.607096,135.139706 449.380019,139.882353 C449.607096,139.772059 450.628945,139.330882 451.764332,139.330882 C456.192344,139.330882 459.371429,142.308824 459.371429,146.720588 Z" id="path-2"></path>
    </defs>
    <g id="Symbols" stroke="none" stroke-width="1" fill="none" fill-rule="evenodd">
        <g id="1200/Latest-Insights/CTA" transform="translate(-442.000000, -124.000000)">
            <g id="“">
                <use fill="#A2CF42" xlink:href="#path-2"></use>
                <use fill="url(#linearGradient-1)" xlink:href="#path-2"></use>
            </g>
        </g>
    </g>
</svg>