<?xml version="1.0" encoding="UTF-8"?><svg xmlns="http://www.w3.org/2000/svg" xmlns:xlink="http://www.w3.org/1999/xlink" viewBox="0 0 485 585"><defs><style>.g{fill:url(#e);}.h{fill:url(#d);}.i{fill:url(#c);}.j{fill:url(#b);}.k,.l{isolation:isolate;}.l{fill:#0061a0;mix-blend-mode:multiply;opacity:.3;}</style><linearGradient id="b" x1="243" y1="767" x2="243" y2="437" gradientTransform="translate(0 -182)" gradientUnits="userSpaceOnUse"><stop offset="0" stop-color="#63b56c"/><stop offset=".99" stop-color="#259ca6"/></linearGradient><linearGradient id="c" x1="75.69" y1="810.41" x2="240.31" y2="525.26" gradientTransform="translate(0 -182)" gradientUnits="userSpaceOnUse"><stop offset="0" stop-color="#5cab4b"/><stop offset=".99" stop-color="#369871"/></linearGradient><linearGradient id="d" x1="6.67" y1="690.45" x2="152.84" y2="487.81" gradientTransform="translate(0 -182)" gradientUnits="userSpaceOnUse"><stop offset="0" stop-color="#5cab4b" stop-opacity="0"/><stop offset=".23" stop-color="#53a452" stop-opacity=".24"/><stop offset=".62" stop-color="#399264" stop-opacity=".63"/><stop offset=".99" stop-color="#1b7d7a"/></linearGradient><linearGradient id="e" x1="27.84" y1="273.57" x2="416.05" y2="593.91" gradientTransform="translate(0 586) scale(1 -1)" gradientUnits="userSpaceOnUse"><stop offset=".04" stop-color="#3c9c7f"/><stop offset=".6" stop-color="#05709d"/><stop offset=".97" stop-color="#17557f"/></linearGradient></defs><g class="k"><g id="a"><rect class="j" x=".5" y="255" width="485" height="330"/><path class="i" d="M.5,210v375H417.5C259,313.5,.5,210,.5,210Z"/><path class="h" d="M292.5,419.2C150.8,270.2,.5,210,.5,210v305s130.2,3.7,292-95.8Z"/><path class="g" d="M4.5,0H.5V210s150.3,60.2,292,209.2c61.6-37.8,127.7-90.6,193-164.2V0H4.5Z"/></g><g id="f"><rect class="l" x=".76" width="483.47" height="585"/></g></g></svg>