<?xml version="1.0" encoding="UTF-8"?><svg xmlns="http://www.w3.org/2000/svg" xmlns:xlink="http://www.w3.org/1999/xlink" viewBox="0 0 768 191"><defs><style>.e{fill:url(#d);}.f{fill:url(#c);}.g{fill:url(#b);}.h{fill:#89c449;}.i,.j{isolation:isolate;}.j{fill:#0061a0;mix-blend-mode:multiply;opacity:.3;}</style><linearGradient id="b" x1="-12.8" y1="32.88" x2="468.34" y2="208" gradientTransform="translate(0 192) scale(1 -1)" gradientUnits="userSpaceOnUse"><stop offset="0" stop-color="#0066b8"/><stop offset=".99" stop-color="#4c9244"/></linearGradient><linearGradient id="c" x1="484" y1="96" x2="768" y2="96" gradientTransform="translate(0 192) scale(1 -1)" gradientUnits="userSpaceOnUse"><stop offset="0" stop-color="#338f34"/><stop offset=".99" stop-color="#59a21a"/></linearGradient><linearGradient id="d" x1="323" y1="76.66" x2="501" y2="76.66" gradientTransform="translate(0 192) scale(1 -1)" gradientUnits="userSpaceOnUse"><stop offset="0" stop-color="#1a675b"/><stop offset=".99" stop-color="#266f39"/></linearGradient></defs><g class="i"><g id="a"><rect class="h" y="-.5" width="768" height="192"/><path class="g" d="M484,39.18c-4.91-25.85-9-39.68-9-39.68H0V191.5H324c43.81-61.58,111.81-117.19,160-152.32Z"/><path class="f" d="M541,.5s-23.8,14.48-57,38.68c6.22,32.73,13.76,84.71,16,152.32h268V.5h-227Z"/><path class="e" d="M323,191.5h178c-2.23-67.6-10.78-119.59-17-152.32-48.19,35.13-117.19,90.74-161,152.32Z"/><rect class="j" y="-.5" width="768" height="192"/></g></g></svg>